<?xml version="1.0" encoding="utf-8"?>
<!-- Generator: Adobe Illustrator 27.5.0, SVG Export Plug-In . SVG Version: 6.00 Build 0)  -->
<svg version="1.1" xmlns="http://www.w3.org/2000/svg" xmlns:xlink="http://www.w3.org/1999/xlink" x="0px" y="0px"
	 viewBox="0 0 500 500" style="enable-background:new 0 0 500 500;" xml:space="preserve">
<g id="BACKGROUND">
	<g>
		<rect style="fill:#CBD9FF;" width="500" height="500"/>
		<g>
			<rect y="406.336" style="fill:#96B3FF;" width="500" height="93.663"/>
			<g>
				<line style="fill:none;stroke:#7A9FFF;stroke-width:4;stroke-miterlimit:10;" x1="42.108" y1="401.866" x2="42.108" y2="500"/>
				
					<line style="fill:none;stroke:#7A9FFF;stroke-width:4;stroke-miterlimit:10;" x1="125.265" y1="401.866" x2="125.265" y2="500"/>
				
					<line style="fill:none;stroke:#7A9FFF;stroke-width:4;stroke-miterlimit:10;" x1="208.422" y1="401.866" x2="208.422" y2="500"/>
				
					<line style="fill:none;stroke:#7A9FFF;stroke-width:4;stroke-miterlimit:10;" x1="291.578" y1="401.866" x2="291.578" y2="500"/>
				
					<line style="fill:none;stroke:#7A9FFF;stroke-width:4;stroke-miterlimit:10;" x1="374.735" y1="401.866" x2="374.735" y2="500"/>
				
					<line style="fill:none;stroke:#7A9FFF;stroke-width:4;stroke-miterlimit:10;" x1="457.892" y1="401.866" x2="457.892" y2="500"/>
			</g>
			<rect y="391.096" style="fill:#7A9FFF;" width="500" height="16.095"/>
		</g>
	</g>
</g>
<g id="OBJECTS">
	<g>
		<g>
			<rect x="305.727" y="38.579" style="fill:#404363;" width="157.939" height="186.918"/>
			<g>
				<g>
					<rect x="389.505" y="48.117" style="fill:#FFFFFF;" width="64.817" height="168.185"/>
				</g>
				<g>
					<rect x="315.071" y="48.117" style="fill:#FFFFFF;" width="64.817" height="168.185"/>
				</g>
			</g>
		</g>
		<g>
			<rect x="66.804" y="58.911" style="fill:#CBD9FF;" width="82.933" height="114.461"/>
			<rect x="66.804" y="53.594" style="fill:#FFFFFF;" width="82.933" height="114.461"/>
			<rect x="71.949" y="59.222" style="fill:#CBD9FF;" width="72.643" height="103.204"/>
			<rect x="93.612" y="115.027" style="fill:#7694E3;" width="29.317" height="2.986"/>
			<rect x="78.464" y="108.606" style="fill:#7694E3;" width="59.614" height="2.985"/>
			<g>
				<g>
					<rect x="78.184" y="124.821" style="fill:#7694E3;" width="28.05" height="2.986"/>
					<rect x="78.184" y="131.787" style="fill:#7694E3;" width="28.05" height="2.986"/>
					<rect x="78.184" y="138.753" style="fill:#7694E3;" width="28.05" height="2.985"/>
					<rect x="78.184" y="145.719" style="fill:#7694E3;" width="28.05" height="2.985"/>
					<rect x="78.184" y="152.685" style="fill:#7694E3;" width="28.05" height="2.986"/>
				</g>
				<g>
					<rect x="110.307" y="124.821" style="fill:#7694E3;" width="28.05" height="2.986"/>
					<rect x="110.307" y="131.787" style="fill:#7694E3;" width="28.05" height="2.986"/>
					<rect x="110.307" y="138.753" style="fill:#7694E3;" width="28.05" height="2.985"/>
					<rect x="110.307" y="145.719" style="fill:#7694E3;" width="28.05" height="2.985"/>
					<rect x="110.307" y="152.685" style="fill:#7694E3;" width="28.05" height="2.986"/>
				</g>
			</g>
			<g>
				<defs>
					<path id="SVGID_1_" d="M122.576,71.24c0,0-8.545-5.167-14.308,4.968C102.505,66.073,93.96,71.24,93.96,71.24
						c-3.478,2.07-4.816,4.717-5.195,7.101c-0.793,4.999,2.956,8.74,6.297,11.861c3.525,3.292,6.898,6.754,10.325,10.147
						c0.961,0.952,1.922,1.903,2.883,2.854c4.231-4.224,8.566-8.343,12.781-12.584c3.418-3.439,7.576-6.881,6.719-12.279
						C127.392,75.957,126.053,73.31,122.576,71.24z"/>
				</defs>
				<use xlink:href="#SVGID_1_"  style="overflow:visible;fill:#7694E3;"/>
				<clipPath id="SVGID_00000071546033034021566370000012101680616747070631_">
					<use xlink:href="#SVGID_1_"  style="overflow:visible;"/>
				</clipPath>
				
					<polyline style="clip-path:url(#SVGID_00000071546033034021566370000012101680616747070631_);fill:none;stroke:#FFFFFF;stroke-width:1.1247;stroke-linecap:round;stroke-linejoin:round;stroke-miterlimit:10;" points="
					91.342,87.961 99.831,87.961 102.314,79.722 105.905,93.404 108.133,82.471 110.053,90.751 112.83,79.722 115.238,87.961 
					125.311,87.961 				"/>
			</g>
		</g>
		<polygon style="fill:#FFFFFF;" points="56.766,206.069 49.257,206.069 49.257,198.561 44.191,198.561 44.191,206.069 
			36.683,206.069 36.683,211.135 44.191,211.135 44.191,218.643 49.257,218.643 49.257,211.135 56.766,211.135 		"/>
		<polygon style="fill:#FFFFFF;" points="257.951,72.839 250.443,72.839 250.443,65.331 245.377,65.331 245.377,72.839 
			237.868,72.839 237.868,77.905 245.377,77.905 245.377,85.414 250.443,85.414 250.443,77.905 257.951,77.905 		"/>
	</g>
	<g>
		<path style="fill:#B3B3B3;" d="M463.426,470.36H36.574c-8.733,0-15.813-7.08-15.813-15.813v0c0-8.733,7.08-15.813,15.813-15.813
			h426.852c8.733,0,15.813,7.08,15.813,15.813v0C479.239,463.28,472.16,470.36,463.426,470.36z"/>
		<g>
			
				<polyline style="fill:none;stroke:#404363;stroke-width:3;stroke-linecap:round;stroke-linejoin:round;stroke-miterlimit:10;" points="
				299.592,458.997 342.205,355.682 405.534,355.682 444.314,455.781 			"/>
			
				<polyline style="fill:none;stroke:#404363;stroke-width:3;stroke-linecap:round;stroke-linejoin:round;stroke-miterlimit:10;" points="
				323.422,458.997 366.035,355.682 429.363,355.682 468.144,455.781 			"/>
			<g>
				<path style="fill:#FFFFFF;" d="M433.995,343.062h-49.161l22.395-89.983c1.014-4.072,4.67-6.93,8.866-6.93h30.33
					c5.94,0,10.301,5.579,8.866,11.343L433.995,343.062z"/>
				<path style="fill:#6977E0;" d="M424.641,343.062h-49.161l22.395-89.983c1.013-4.072,4.67-6.93,8.866-6.93h30.33
					c5.94,0,10.301,5.579,8.866,11.343L424.641,343.062z"/>
				<g>
					
						<line style="fill:none;stroke:#E3E6FF;stroke-width:2;stroke-linecap:round;stroke-miterlimit:10;" x1="434.401" y1="269.491" x2="402.223" y2="269.491"/>
					
						<line style="fill:none;stroke:#E3E6FF;stroke-width:2;stroke-linecap:round;stroke-miterlimit:10;" x1="428.55" y1="288.992" x2="396.373" y2="288.992"/>
					
						<line style="fill:none;stroke:#E3E6FF;stroke-width:2;stroke-linecap:round;stroke-miterlimit:10;" x1="422.7" y1="308.494" x2="390.522" y2="308.494"/>
				</g>
			</g>
			<path style="fill:#FFFFFF;" d="M427.352,353.418h-86.513c-3.669,0-6.643-2.974-6.643-6.643v-3.053
				c0-3.669,2.974-6.643,6.643-6.643h86.513c3.669,0,6.643,2.974,6.643,6.643v3.053
				C433.995,350.444,431.021,353.418,427.352,353.418z"/>
		</g>
		<g>
			<g>
				<g>
					<g>
						<path style="fill:#BA6552;" d="M220.069,269.204c0,0-3.354,5.206-4.542,5.897c-1.188,0.69-2.001,0.615-2.001,0.615
							l2.146-4.807L220.069,269.204z"/>
						<path style="fill:#BA6552;" d="M220.503,264.107l-10.523,6.298c0,0,0.534,0.724,1.882,0.544
							c1.348-0.18,4.652-1.726,4.652-1.726L220.503,264.107z"/>
						<path style="fill:#BA6552;" d="M241.666,264.691c0,0-18.392-2.44-21.163-0.584c-2.771,1.856-9.375,8.308-10.089,10.414
							c-0.713,2.108,6.346-2.106,8.687-2.959c1.516-0.552,5.728,0.511,7.81,1.008c2.402,0.574,4.527,0.847,6.348,0.94
							c4.157,0.213,7.741-2.878,8.204-7.014L241.666,264.691z"/>
					</g>
					<path style="fill:#BA6552;" d="M235.088,264.088l41.091-13.6l22.798-19.082c2.621-2.512,6.515-3.159,9.807-1.63l0,0
						c5.68,2.639,6.868,10.196,2.273,14.451l-20.446,16.748l-4.59,3.576l-50.419,8.434L235.088,264.088z"/>
				</g>
				<g>
					<path style="fill:#58B1C8;" d="M338.857,204.776c2.616,2.22,3.169,8.629,1.354,11.541c-3.299,5.291-7.858,13.742-19.499,23.306
						l-10.745,8.627l-14.924-18.001l25.956-24.66C320.999,205.589,328.191,195.724,338.857,204.776z"/>
					<path style="fill:none;stroke:#404363;stroke-width:0.75;stroke-linecap:round;stroke-miterlimit:10;" d="M318.713,217.183
						c1.901,5.382,5.412,10.183,9.964,13.627"/>
					<path style="fill:none;stroke:#404363;stroke-width:0.75;stroke-linecap:round;stroke-miterlimit:10;" d="M314.161,221.092
						c2.94,4.711,6.785,8.855,11.264,12.138"/>
					<path style="fill:none;stroke:#404363;stroke-width:0.75;stroke-linecap:round;stroke-miterlimit:10;" d="M299.567,225.645
						c4.424,5.017,8.848,10.034,13.271,15.051"/>
					<path style="fill:none;stroke:#404363;stroke-width:0.75;stroke-linecap:round;stroke-miterlimit:10;" d="M304.578,222.26
						c3.081,3.42,6.162,6.84,9.244,10.26"/>
					<path style="fill:none;stroke:#404363;stroke-width:0.75;stroke-linecap:round;stroke-miterlimit:10;" d="M311.662,234.259
						c2.188,2.329,4.375,4.657,6.563,6.986"/>
				</g>
				<g>
					
						<rect x="290.997" y="233.049" transform="matrix(0.7736 -0.6336 0.6336 0.7736 -87.2134 243.828)" style="fill:#404363;" width="13.288" height="21.847"/>
					<g>
						<path style="fill:#999999;" d="M306.328,239.455c0.024,3.416-2.725,6.204-6.14,6.229c-3.415,0.024-6.204-2.725-6.229-6.14
							c-0.024-3.416,2.725-6.204,6.14-6.229C303.515,233.29,306.304,236.039,306.328,239.455z"/>
						<path style="fill:#FFFFFF;" d="M304.975,239.465c0.019,2.668-2.128,4.846-4.797,4.865c-2.668,0.019-4.846-2.128-4.866-4.796
							c-0.019-2.668,2.128-4.847,4.796-4.866C302.777,234.649,304.956,236.796,304.975,239.465z"/>
						
							<line style="fill:none;stroke:#404363;stroke-width:0.75;stroke-miterlimit:10;" x1="299.872" y1="239.707" x2="302.895" y2="239.707"/>
					</g>
				</g>
			</g>
			<g>
				<g>
					<path style="fill:#C27C65;" d="M264.059,431.559c0.521-1.875,1.403-4.703,2.296-7.489H254.16l-0.217,1.029
						c-1.438,3.474-3.26,7.203-5.071,9.02c-4.112,4.126-7.118,8.62-12.296,10.711c-0.579,0.232-1.159,0.465-1.738,0.69
						c-4.598,1.802-8.91,3.39-8.352,4.506c0.625,1.258,4.22,3.877,13.431,2.497c9.212-1.38,7.233-2.81,13.928-2.94
						c6.696-0.129,12.498-0.961,12.242-5.119c-0.088-1.465-0.555-2.861-1.018-4.223
						C264.211,437.735,263.257,434.447,264.059,431.559z"/>
					<g>
						<path style="fill:#46507D;" d="M258.508,442.465c2.897-0.085,5.378-2.1,6.055-4.918l-0.432-2.487l2.634,2.298l1.139,12.708
							c0.017,0.906-0.668,1.671-1.57,1.754l-43.193,3.795c-0.914,0.081-1.712-0.616-1.756-1.532l-0.138-2.886
							c-0.097-2.025,1.182-3.861,3.115-4.473l11.57-3.659l7.935-6.69l2.334-2.023l3.772,2.02l3.573,3.97
							C254.807,441.744,256.622,442.521,258.508,442.465L258.508,442.465z"/>
						
							<line style="fill:none;stroke:#E6E6E6;stroke-width:1.1306;stroke-linecap:round;stroke-miterlimit:10;" x1="238.044" y1="441.313" x2="241.412" y2="441.313"/>
						
							<line style="fill:none;stroke:#E6E6E6;stroke-width:1.1306;stroke-linecap:round;stroke-miterlimit:10;" x1="240.316" y1="438.884" x2="243.698" y2="438.884"/>
						
							<line style="fill:none;stroke:#E6E6E6;stroke-width:1.1306;stroke-linecap:round;stroke-miterlimit:10;" x1="242.979" y1="436.691" x2="246.513" y2="436.691"/>
						<path style="fill:#E6E6E6;" d="M221.516,452.671l-0.131,1.413c0.044,0.917,0.842,1.613,1.756,1.532l43.193-3.795
							c0.902-0.083,1.587-0.849,1.57-1.755l0.176-1.484L221.516,452.671z"/>
					</g>
				</g>
				<path style="fill:#46507D;" d="M341.286,272.226l-4.86,28.877l-47.24,15.996l-10.101,3.39c-0.825,0.277-1.514,0.856-1.928,1.621
					l-2.37,4.375c0,0-26.59,104.633-26.81,105.132c0,0,3.555,3.279,9.243,3.875c7.622,0.799,9.16-4.028,9.16-4.028
					c0.326-1.035,20.738-48.924,20.738-48.924l5.769-26.876l4.667-8.509l0.207-0.06l0.005,0.007l71.989-12.521
					c8.727-1.728,14.918-9.521,14.629-18.413l-1.132-34.771L341.286,272.226z"/>
			</g>
			<g>
				<path style="fill:#C27C65;" d="M300.825,451.602c-1.151-2.386-2.489-5.537-2.035-8.501c0.07-0.46,0.155-0.978,0.25-1.537
					l-11.724-1.459c-0.918,2.912-2.039,5.733-3.302,7.343c-3.592,4.585-6.043,9.405-10.935,12.097
					c-0.547,0.3-1.096,0.599-1.644,0.892c-4.351,2.336-8.443,4.425-7.758,5.467c0.771,1.175,4.651,3.348,13.633,0.883
					c8.982-2.465,6.848-3.65,13.48-4.575c6.633-0.924,12.295-2.44,11.547-6.537C302.076,454.229,301.447,452.899,300.825,451.602z"
					/>
				<g>
					<path style="fill:#576096;" d="M294.225,456.005c2.897-0.085,5.378-2.1,6.055-4.918l-0.432-2.487l2.634,2.299l1.139,12.707
						c0.017,0.906-0.668,1.671-1.57,1.754l-43.193,3.795c-0.914,0.081-1.712-0.616-1.756-1.532l-0.138-2.886
						c-0.097-2.025,1.182-3.861,3.115-4.473l11.57-3.659l7.935-6.69l2.334-2.023l3.772,2.02l3.573,3.97
						C290.525,455.284,292.339,456.06,294.225,456.005L294.225,456.005z"/>
					
						<line style="fill:none;stroke:#E6E6E6;stroke-width:1.1306;stroke-linecap:round;stroke-miterlimit:10;" x1="273.761" y1="454.852" x2="277.13" y2="454.852"/>
					
						<line style="fill:none;stroke:#E6E6E6;stroke-width:1.1306;stroke-linecap:round;stroke-miterlimit:10;" x1="276.033" y1="452.424" x2="279.416" y2="452.424"/>
					
						<line style="fill:none;stroke:#E6E6E6;stroke-width:1.1306;stroke-linecap:round;stroke-miterlimit:10;" x1="278.696" y1="450.231" x2="282.231" y2="450.231"/>
					<path style="fill:#E6E6E6;" d="M257.233,466.21l-0.131,1.413c0.044,0.917,0.842,1.613,1.756,1.532l43.193-3.795
						c0.902-0.083,1.587-0.849,1.57-1.755l0.176-1.484L257.233,466.21z"/>
				</g>
				<path style="fill:#576096;" d="M344.061,276.642l-1.796,29.228l-45.295,20.876l-9.689,4.434
					c-0.791,0.362-1.415,1.011-1.747,1.815l-1.897,4.6c0,0-0.285,108.004-0.378,108.542c0,0,4.239,2.328,9.904,1.538
					c7.591-1.058,7.922-6.113,7.922-6.113c0.067-1.083,8.362-52.476,8.362-52.476l-0.865-27.475l-0.129-5.855l0.199-0.081
					l0.006,0.007l70.273-20.023c8.497-2.637,13.834-11.038,12.611-19.849l-4.783-34.459L344.061,276.642z"/>
			</g>
			<g>
				<g>
					<g>
						<path style="fill:#70E2FF;" d="M333.323,248.903c1.263,5.36,2.071,10.82,2.223,16.351c0.188,6.851-0.686,13.733-0.951,20.582
							c-0.245,6.355-0.48,12.72-0.426,19.081c19.85,5.086,38.099,5.594,57.774-0.62c0.642-0.203-2.061-20.374-2.269-22.326
							c-2.262-21.154-4.608-44.778-14.999-63.873c-3.565-6.551-8.05-12.774-13.993-17.355c-8.67-6.682-21.959-10.279-31.777-3.952
							c-1.475,0.951-2.822,2.094-4.024,3.373c-6.357,6.76-2.768,18.171,0.45,25.579
							C328.557,233.171,331.443,240.925,333.323,248.903z"/>
					</g>
				</g>
				<g>
					<g>
						<path style="fill:#58B1C8;" d="M378.416,274.761c-1.317-8.431-8.885-41.597-11.543-49.691c0.05,2.125,0.126,4.251,0.141,6.39
							c0.053,7.651-0.465,15.754-2.908,23.074c-1.967,5.894-5.487,11.708-11.195,14.622c-5.361,2.737-11.587,2.232-17.486,2.918
							c-0.222,4.59-0.653,9.184-0.83,13.763c-0.028,0.738-0.039,1.477-0.065,2.215c12.127-2.045,24.475-2.535,36.692-3.846
							C375.875,283.706,379.138,279.385,378.416,274.761z"/>
					</g>
				</g>
			</g>
			<g>
				<g>
					<path style="fill:#C27C65;" d="M337.102,207.449L337.102,207.449c4.639-0.885,7.433-6.22,6.24-11.917l-7.126-34.041
						l-16.8,3.203l7.126,34.041C327.735,204.432,332.462,208.333,337.102,207.449z"/>
				</g>
				<g>
					<path style="fill:#BA6552;" d="M329.978,205.014c4.848-3.579,7.523-8.909,9.21-14.865c0.598-2.11,1.182-4.282,1.671-6.479
						l-4.643-22.18l-16.8,3.203l7.126,34.041C327.077,201.291,328.346,203.451,329.978,205.014z"/>
				</g>
			</g>
			<g>
				<g>
					<path style="fill:#C27C65;" d="M322.084,199.903L322.084,199.903c9.387-1.979,19.587-15.984,17.607-25.37l-3.652-18.563
						c-1.746-8.588-9.614-14.531-18.352-13.861l0,0c-10.421,0.799-17.783,10.551-15.695,20.792l3.707,18.8
						C307.678,191.087,317.979,200.768,322.084,199.903z"/>
				</g>
				<path style="fill:#404363;" d="M335.842,165.362c-0.877-1.323-2.047-2.443-3.495-3.064c-1.327-0.569-2.807-0.693-4.149-1.225
					c-3.086-1.223-5.058-4.771-4.466-8.037c-3.419,3.076-8.966,5.77-13.428,6.881c-3.121,0.778-5.592,0.841-7.563-1.155
					c-0.39,3.355-0.565,4.252,0.026,7.589c0.331,1.869,0.582,3.41,1.013,5.258c0.305,1.308,0.452,2.724,0.717,4.057
					c-1.893-2.48-2.143-5.594-2.88-8.55c-1.656-6.646-4.49-13.238-1.187-19.876c2.14-4.301,6.103-7.57,10.599-9.262
					c4.307-1.621,9.126-1.85,13.567-0.646c2.326,0.631,4.544,1.653,6.544,2.998c2.388,1.605,3.534,3.359,5.034,5.755
					c2.129-0.364,4.3,0.834,5.611,2.551c1.311,1.716,1.901,3.872,2.281,5.998c1.582,8.856,0.373,18.801-4.177,26.562
					c0.141-0.24-1.054-5.501-1.315-6.703c-0.546-2.517-1.212-4.995-1.833-7.487C336.487,166.437,336.187,165.883,335.842,165.362z"
					/>
				<g>
					<g>
						<g>
							<path style="fill:#404363;" d="M310.312,177.102c-0.182-1.008-0.364-2.016-0.545-3.023c-0.125-0.691-0.966-1.082-1.599-0.908
								c-0.728,0.2-1.033,0.906-0.908,1.599c0.182,1.008,0.364,2.016,0.545,3.023c0.125,0.691,0.966,1.082,1.599,0.908
								C310.132,178.501,310.437,177.796,310.312,177.102L310.312,177.102z"/>
						</g>
					</g>
					<path style="fill:none;stroke:#404363;stroke-width:0.75;stroke-linecap:round;stroke-miterlimit:10;" d="M316.636,183.781
						c-0.989,0.395-2.067,0.563-3.129,0.489c-0.297-0.021-0.633-0.084-0.791-0.337c-0.223-0.356,0.052-0.802,0.28-1.155
						c0.955-1.474,1.199-3.387,0.643-5.053"/>
					<g>
						<g>
							<path style="fill:#404363;" d="M324.032,174.627c-0.182-1.008-0.363-2.015-0.545-3.023c-0.125-0.691-0.966-1.082-1.599-0.908
								c-0.728,0.2-1.033,0.906-0.908,1.599c0.182,1.008,0.364,2.015,0.545,3.023c0.125,0.691,0.966,1.082,1.599,0.908
								C323.852,176.026,324.157,175.32,324.032,174.627L324.032,174.627z"/>
						</g>
					</g>
					<path style="fill:none;stroke:#404363;stroke-width:0.75;stroke-linecap:round;stroke-miterlimit:10;" d="M304.374,169.06
						c0.826-0.945,2.166-1.411,3.401-1.182"/>
					<path style="fill:none;stroke:#404363;stroke-width:0.75;stroke-linecap:round;stroke-miterlimit:10;" d="M320.331,165.264
						c1.165-0.72,2.645-0.909,3.954-0.505"/>
				</g>
				<g>
					<g>
						<path style="fill:#C27C65;" d="M342.997,169.909c0.658,2.681-0.857,5.441-3.499,6.774c-0.805,0.406-1.783-0.091-2.019-0.962
							l-2.254-8.331c-0.199-0.737,0.206-1.519,0.924-1.779C340.041,164.199,342.288,167.022,342.997,169.909z"/>
					</g>
					<path style="fill:none;stroke:#404363;stroke-width:0.75;stroke-linecap:round;stroke-miterlimit:10;" d="M340.256,168.018
						c-0.387-0.469-1.106-0.625-1.653-0.359c-0.699,0.34-0.982,1.231-0.858,1.998c0.124,0.767,0.565,1.44,0.995,2.088
						c0.432-0.395,1.227-0.251,1.494,0.269c0.267,0.521-0.081,1.25-0.654,1.37"/>
				</g>
				<g>
					<path style="fill:#FFFFFF;" d="M334.479,186.536c0.401,2.281,0.567,4.566,0.217,6.717c-0.309,1.896-1.598,3.519-3.152,4.648
						c-6.587,4.783-14.189,4.291-19.86-1.884c-3.167-3.449-4.988-7.962-5.896-12.555c-0.177-1.161,8.743-2.751,9.72-2.867
						c4.494-0.532,8.802-2.881,12.999-4.574c0.722-0.292,1.526-0.586,2.26-0.323c0.971,0.349,1.361,1.486,1.627,2.483
						C333.086,180.768,333.971,183.648,334.479,186.536z"/>
					<path style="fill:none;stroke:#FFFFFF;stroke-width:2.2613;stroke-linecap:round;stroke-miterlimit:10;" d="M336.206,164.767
						c-2.325,4.85-4.649,9.7-6.974,14.55"/>
					<path style="fill:none;stroke:#FFFFFF;stroke-width:2.2613;stroke-linecap:round;stroke-miterlimit:10;" d="M339.686,176.348
						c-1.185,5.763-2.983,10.061-5.774,15.24"/>
					<path style="fill:none;stroke:#404363;stroke-width:0.75;stroke-linecap:round;stroke-miterlimit:10;" d="M318.666,180.04
						c-2.696,0.089-5.725,0.388-8.153,1.562"/>
				</g>
			</g>
			<g>
				<g>
					<g>
						<path style="fill:#C27C65;" d="M292.388,276.615c0,0-3.722,4.949-4.957,5.553c-1.235,0.602-2.041,0.469-2.041,0.469
							l2.488-4.639L292.388,276.615z"/>
						<path style="fill:#BA6552;" d="M293.19,271.562l-10.952,5.52c0,0,0.481,0.76,1.838,0.678c1.358-0.082,4.765-1.385,4.765-1.385
							L293.19,271.562z"/>
						<path style="fill:#C27C65;" d="M314.255,273.676c0,0-18.167-3.764-21.065-2.114c-2.898,1.65-9.952,7.607-10.816,9.657
							c-0.864,2.05,6.482-1.641,8.879-2.323c1.552-0.441,5.676,0.924,7.717,1.571c2.354,0.746,4.454,1.172,6.263,1.397
							c4.13,0.514,7.929-2.31,8.691-6.402L314.255,273.676z"/>
					</g>
					<polygon style="fill:#C27C65;" points="307.738,272.599 353.668,259.603 345.705,217.267 361.113,213.633 370.599,270.359 
						365.933,273.835 307.607,281.511 					"/>
				</g>
				<g>
					<path style="fill:#70E2FF;" d="M359.729,205.017c4.013,3.395,5.45,8.215,6.512,13.024c1.181,5.349,6.483,38.33,8.429,50.081
						c0.725,4.375-5.613,7.548-5.613,7.548l-51.658,7.724l-7.569-12.176l39.291-12.387c-1.396-7.534-2.997-17.867-4.393-25.401
						c-0.896-4.835-1.792-9.669-2.688-14.504c-1.033-5.573-3.244-9.957,3.535-14.649C346.935,203.339,353.682,199.9,359.729,205.017
						z"/>
					<path style="fill:none;stroke:#404363;stroke-width:0.75;stroke-linecap:round;stroke-miterlimit:10;" d="M349.263,258.045
						c-2.499-13.713-5.406-29.609-7.905-43.323"/>
					<path style="fill:none;stroke:#404363;stroke-width:0.75;stroke-linecap:round;stroke-miterlimit:10;" d="M357.403,259.44
						c-2.298-1.35-5.134-1.754-7.718-1.099"/>
					<path style="fill:none;stroke:#404363;stroke-width:0.75;stroke-linecap:round;stroke-miterlimit:10;" d="M343.325,226.307
						c-1.426-2.013-2.851-4.026-4.276-6.039"/>
				</g>
			</g>
		</g>
		<g>
			
				<polyline style="fill:none;stroke:#404363;stroke-width:3;stroke-linecap:round;stroke-linejoin:round;stroke-miterlimit:10;" points="
				200.408,458.997 157.795,355.682 94.466,355.682 55.686,455.781 			"/>
			
				<polyline style="fill:none;stroke:#404363;stroke-width:3;stroke-linecap:round;stroke-linejoin:round;stroke-miterlimit:10;" points="
				176.578,458.997 133.965,355.682 70.637,355.682 31.856,455.781 			"/>
			<g>
				<path style="fill:#FFFFFF;" d="M66.005,343.062h49.161L92.77,253.079c-1.013-4.072-4.67-6.93-8.866-6.93h-30.33
					c-5.94,0-10.301,5.579-8.866,11.343L66.005,343.062z"/>
				<path style="fill:#6977E0;" d="M75.359,343.062h49.161l-22.395-89.983c-1.014-4.072-4.67-6.93-8.866-6.93h-30.33
					c-5.94,0-10.301,5.579-8.866,11.343L75.359,343.062z"/>
				<g>
					
						<line style="fill:none;stroke:#E3E6FF;stroke-width:2;stroke-linecap:round;stroke-miterlimit:10;" x1="65.522" y1="268.491" x2="97.7" y2="268.491"/>
					
						<line style="fill:none;stroke:#E3E6FF;stroke-width:2;stroke-linecap:round;stroke-miterlimit:10;" x1="71.373" y1="287.992" x2="103.55" y2="287.992"/>
					
						<line style="fill:none;stroke:#E3E6FF;stroke-width:2;stroke-linecap:round;stroke-miterlimit:10;" x1="77.223" y1="307.494" x2="109.401" y2="307.494"/>
				</g>
			</g>
			<path style="fill:#FFFFFF;" d="M72.647,353.418h86.513c3.669,0,6.643-2.974,6.643-6.643v-3.053c0-3.669-2.974-6.643-6.643-6.643
				H72.647c-3.669,0-6.643,2.974-6.643,6.643v3.053C66.005,350.444,68.979,353.418,72.647,353.418z"/>
		</g>
		<g>
			<g>
				<g>
					<g>
						<path style="fill:#FFB49B;" d="M289.651,247.85c0,0,4.486,4.269,5.804,4.66c1.317,0.39,2.09,0.126,2.09,0.126l-3.219-4.166
							L289.651,247.85z"/>
						<path style="fill:#FFB49B;" d="M288.027,242.998l11.711,3.64c0,0-0.349,0.829-1.701,0.972
							c-1.352,0.143-4.928-0.581-4.928-0.581L288.027,242.998z"/>
						<path style="fill:#FFB49B;" d="M267.598,248.554c0,0,17.298-6.706,20.429-5.556c3.13,1.15,11.069,5.864,12.259,7.743
							c1.19,1.88-6.664-0.551-9.14-0.828c-1.604-0.179-5.446,1.847-7.352,2.821c-2.199,1.124-4.2,1.89-5.947,2.41
							c-3.99,1.187-8.202-0.972-9.627-4.883L267.598,248.554z"/>
					</g>
					<path style="fill:#FFB49B;" d="M273.849,246.418l-43.139-3.53l-25.676-14.111c-3.056-1.96-7.001-1.844-9.937,0.291l0,0
						c-5.064,3.684-4.774,11.328,0.555,14.618l23.504,12.796l5.303,2.393l50.986-3.689L273.849,246.418z"/>
				</g>
				<path style="fill:#E6E6E6;" d="M164.186,211.754c-2.139,2.683-1.447,9.078,0.896,11.585c4.257,4.556,10.36,11.97,23.625,19.11
					l34.112,18.585l40.892-2.924l4.485-12.814l-37.928-3.588l-48.402-32.599C181.866,209.109,172.908,200.815,164.186,211.754z"/>
			</g>
			<polygon style="fill:#999999;" points="177.826,209.379 174.9,233.073 162.48,278.058 167.868,323.528 140.715,323.528 
				155.584,206.943 			"/>
			<g>
				<path style="fill:#F5876E;" d="M230.636,450.568c-0.584-0.21-1.17-0.427-1.755-0.645c-5.229-1.957-8.35-6.372-12.567-10.39
					c-1.857-1.77-1.73-3.176-1.955-6.929l0.198-1.658l-11.637-1.59c-0.06,2.305-0.136,4.507-0.231,6.053
					c-0.184,2.993-1.615,8.134-2.409,10.661c-0.428,1.374-0.858,2.781-0.908,4.248c-0.149,4.162,5.673,4.845,12.37,4.801
					c6.696-0.043,4.755,1.438,13.999,2.58c9.244,1.142,12.77-1.568,13.363-2.842C239.63,453.727,235.279,452.251,230.636,450.568z"
					/>
				<path style="fill:#E6E6E6;" d="M205.583,447.517c-2.897,0.071-4.709-1.465-4.278-4.33l0.484-2.592l-1.637-0.144l-3.764,15.101
					c0.032,0.905,0.757,1.633,1.662,1.667l43.556,1.526c0.917,0.031,1.676-0.707,1.671-1.625l-0.017-2.889
					c-0.012-2.027-1.388-3.792-3.351-4.299l-11.75-3.031l-8.284-6.253l-2.439-1.894l-3.658,2.22l-3.354,4.156
					C209.239,446.598,207.469,447.471,205.583,447.517L205.583,447.517z"/>
				<path style="fill:#5A66A2;" d="M145.975,274.336l4.86,28.877l47.24,15.996l10.101,3.39c0.825,0.277,1.514,0.856,1.928,1.621
					l2.37,4.375c0,0,6.195,108.012,6.313,108.545c0,0-4.127,2.521-9.822,1.995c-7.632-0.705-8.197-5.74-8.197-5.74
					c-0.117-1.079-10.782-52.032-10.782-52.032l-0.408-27.485l0.128-4.612l-0.207-0.06l-0.005,0.007l-71.989-12.521
					c-8.727-1.729-14.918-9.521-14.629-18.413l1.132-34.771L145.975,274.336z"/>
			</g>
			<g>
				<path style="fill:#F5876E;" d="M186.014,451.602c1.151-2.386,2.489-5.537,2.036-8.501c-0.07-0.46-0.155-0.978-0.251-1.537
					l11.724-1.459c0.918,2.912,2.04,5.733,3.301,7.343c3.592,4.585,6.043,9.405,10.935,12.097c0.547,0.3,1.096,0.599,1.643,0.892
					c4.351,2.336,8.444,4.425,7.758,5.467c-0.771,1.175-4.651,3.348-13.633,0.883c-8.982-2.465-6.848-3.65-13.48-4.575
					c-6.633-0.924-12.295-2.44-11.546-6.537C184.763,454.229,185.392,452.899,186.014,451.602z"/>
				<path style="fill:#FFFFFF;" d="M192.561,456.629c-2.897-0.085-5.378-2.1-6.055-4.918l0.432-2.487l-2.634,2.299l-1.139,12.708
					c-0.017,0.906,0.668,1.671,1.57,1.754l43.193,3.795c0.914,0.081,1.712-0.616,1.756-1.532l0.138-2.886
					c0.097-2.025-1.182-3.861-3.115-4.473l-11.57-3.659l-7.935-6.69l-2.334-2.023l-3.772,2.02l-3.573,3.97
					C196.261,455.908,194.446,456.685,192.561,456.629L192.561,456.629z"/>
				<path style="fill:#6C78BB;" d="M142.778,276.642l1.796,29.228l45.295,20.876l9.688,4.434c0.791,0.362,1.415,1.011,1.747,1.815
					l1.897,4.6c0,0,0.285,108.004,0.378,108.542c0,0-4.239,2.328-9.904,1.538c-7.591-1.058-7.922-6.113-7.922-6.113
					c-0.067-1.083-8.362-52.476-8.362-52.476l0.865-27.475l0.129-5.855l-0.199-0.081l-0.006,0.007l-70.272-20.023
					c-8.497-2.637-13.834-11.038-12.611-19.849l9.215-34.452L142.778,276.642z"/>
			</g>
			<g>
				<path style="fill:#FFB49B;" d="M178.094,210.043c-1.351-1.583-3.071-2.907-4.809-4.081c-5.37-3.627-14.516-13.001-19.662-5.802
					c-4.947,6.92-4.556,19.444-1.599,27.052c1.314,3.382,3.396,6.689,6.647,8.302c3.451,1.712,7.699,1.154,11.068-0.737
					C172.534,226.535,175.439,218.331,178.094,210.043z"/>
				<g>
					<path style="fill:#FFB49B;" d="M162.254,219.47L162.254,219.47c-4.146-2.261-5.174-8.196-2.296-13.255l17.197-30.23
						l15.015,8.188l-17.197,30.23C172.094,219.463,166.4,221.731,162.254,219.47z"/>
					<path style="fill:#F5876E;" d="M177.718,209.577c-6.734-4.024-7.678-16.774-3.665-25.697l1.604-3.566l15.436,5.753
						L177.718,209.577z"/>
				</g>
				<g>
					<path style="fill:#7BE1DD;" d="M176.132,216.062c-4.038,4.127-8.318,8.343-13.295,10.775c0.598-6.418,0.44-11.407-0.293-18.094
						c-0.36-3.28-0.934-8.368-2.384-11.732c-2.623-0.648-5.262-0.981-7.932-1.001c-9.814-0.073-17.276,5.708-23.114,13.112
						c-4.702,5.963-7.776,12.44-11.044,19.207c-2.972,6.155-5.512,12.493-7.767,18.944c-4.752,13.597-8.376,27.564-11.832,41.537
						c-1.002,4.051-1.987,8.106-2.984,12.158c18.65,8.826,36.799,10.8,57.155,8.454c1.452-9.964,3.135-28.885,3.928-38.718
						c0.509-6.319,1.148-11.41,3.467-17.075c1.76-4.3,4.277-7.799,7.184-11.16C170.054,233.623,173.172,224.869,176.132,216.062z"/>
				</g>
				<g>
					<path style="fill:#FFFFFF;" d="M131.36,274.43l31.766-47.014c0,0-0.716-25.453,1.744-29.855
						c-2.623-0.648-9.973-1.531-12.643-1.551c-9.814-0.073-17.276,5.708-23.114,13.112c-4.702,5.963-7.776,12.44-11.044,19.207
						c-2.972,6.155-5.512,12.493-7.767,18.944c-4.752,13.597-9.597,26.929-13.053,40.902c-1.002,4.051-5.336,25.048-5.558,33.268
						c10.448,4.944,23.702,8.477,34.312,9.566C126.754,319.13,131.36,274.43,131.36,274.43z"/>
				</g>
				<path style="fill:none;stroke:#404363;stroke-width:0.75;stroke-linecap:round;stroke-miterlimit:10;" d="M103.993,296.73
					c4.04,1.192,8.08,2.384,12.12,3.575"/>
				<g>
					<path style="fill:#E6E6E6;" d="M139.975,213.348c-0.905,4.662-0.998,9.636-1.727,14.157
						c-1.617,10.033-3.08,20.093-4.381,30.172c-0.678,5.257-1.293,10.521-1.858,15.791l20.783-30.759
						C148.844,232.772,145.081,222.746,139.975,213.348z"/>
				</g>
			</g>
			<g>
				<g>
					<g>
						<path style="fill:none;stroke:#404363;stroke-width:0.75;stroke-linecap:round;stroke-miterlimit:10;" d="M301.014,250.649
							c-3.032,12.111-12.153,22.532-23.756,27.141c-3.241,1.288-6.826,2.146-10.208,1.296c-3.767-0.947-6.821-3.431-9.608-6.035
							c-2.708-2.53-5.313-5.253-8.547-7.062s-7.31-2.582-10.649-0.973"/>
						<path style="fill:#FFA587;" d="M232.523,268.387c0,0,2.918-5.462,4.046-6.248c1.128-0.784,1.945-0.776,1.945-0.776
							l-2.906,7.218L232.523,268.387z"/>
						<path style="fill:#FFA587;" d="M237.475,270.496l5.648-10.983c0,0-1.611-0.54-2.602,0.391c-0.992,0.931-4.951,8.86-4.951,8.86
							L237.475,270.496z"/>
						<path style="fill:#FFB49B;" d="M216.514,274.761c0,0,18.53,0.932,21.14-1.143c2.61-2.075,8.667-9.044,9.206-11.202
							c0.539-2.159-6.442,3.082-9.197,5.178c-1.284,0.977-5.295-1.229-7.411-1.554c-2.44-0.376-4.581-0.475-6.403-0.419
							c-4.161,0.126-7.157,3.165-7.281,7.325L216.514,274.761z"/>
						<path style="fill:#404363;" d="M234.507,270.443c-3.823,1.427-7.467,1.124-8.14-0.678c-0.673-1.802,1.881-4.42,5.704-5.847
							c3.823-1.427,7.467-1.124,8.14,0.678C240.884,266.398,238.33,269.015,234.507,270.443z"/>
						<path style="fill:#FFB49B;" d="M230.35,266.727c0,0,1.689-2.338,2.469-2.877c0.833-0.576,2.967,0.256,2.244,1.883
							c-0.434,0.976-2.061,3.071-2.061,3.071s-1.747,5.26-5.431,5.941c-5.125,0.947-5.873-2.779-5.3-4.384
							c0.117-0.327,0.331-0.608,0.608-0.818L230.35,266.727z"/>
					</g>
					<polygon style="fill:#FFB49B;" points="221.948,266.019 170.941,255.041 155.248,214.923 140.256,220.01 162.289,273.138 
						168.087,273.611 223.059,274.862 					"/>
				</g>
				<g>
					<path style="fill:#FFFFFF;" d="M141.704,201.866c-3.308,0.911-5.416,4.176-4.997,7.581c0.762,6.189,2.995,17.173,9.52,30.752
						l12.016,32.885l53.315,6.337l1.748-16.169l-38.937-8.304l-16.814-44.816C157.555,210.131,155.192,198.154,141.704,201.866z"/>
					<path style="fill:none;stroke:#404363;stroke-width:0.75;stroke-linecap:round;stroke-miterlimit:10;" d="M173.039,249.317
						c-5.152-12.952-10.303-25.904-15.455-38.856"/>
					<path style="fill:none;stroke:#404363;stroke-width:0.75;stroke-linecap:round;stroke-miterlimit:10;" d="M162.058,221.327
						c0.141-2.462,0.283-4.925,0.424-7.387"/>
				</g>
			</g>
			<g>
				<g>
					<g>
						<g>
							<path style="fill:#FFB49B;" d="M186.676,151.076c-3.755,1.92-6.813,5.188-8.381,9.404l-6.482,17.774
								c-3.409,8.967,4.5,24.382,13.467,27.79c3.922,1.491,15.597-6.479,19.006-15.446l6.573-18
								c2.311-6.205,0.836-12.796-3.135-17.41C200.697,153.871,193.677,152.522,186.676,151.076z"/>
						</g>
						<g>
							<path style="fill:#F5876E;" d="M207.724,155.189c-7.027-1.317-14.047-2.667-21.048-4.112
								c-1.689,0.864-3.226,2.013-4.561,3.386c0.665,1.156,1.445,2.242,2.374,3.151c0.212,0.031,0.425,0.115,0.614,0.322
								c0.218,0.238,0.425,0.485,0.641,0.724c0.043,0.03,0.081,0.066,0.125,0.095c0.214,0.14,0.333,0.322,0.414,0.513
								c7.103,7.879,13.714,16.185,20.584,24.261l3.991-10.93C213.17,166.394,211.696,159.803,207.724,155.189z"/>
						</g>
					</g>
					<g>
						<path style="fill:#404363;" d="M214.667,156.24c-2.239-4.265-5.434-7.993-9.461-10.527c-3.965-2.495-8.934-3.445-13.564-2.907
							c-2.334,0.272-4.642,0.937-6.697,2.089c-2.285,1.28-3.319,3.318-5.213,4.879c-1.704,1.405-4.183,0.852-5.979,2.57
							c-1.561,1.493-2.478,3.531-3.182,5.573c-2.934,8.505-3.28,18.517,0.015,26.888c-0.102-0.259,1.893-5.272,2.337-6.419
							c0.107-0.278,0.965-2.792,0.879-2.849c0.646,0.437,1.291,0.875,1.937,1.312c1.267-2.075,2.535-4.151,3.802-6.226
							c0.458-0.75,0.934-1.52,1.642-2.041c0.93-0.685,2.129-0.85,3.233-1.19c2.264-0.698,3.586-2.594,5.165-4.192
							c9.253,5.506,18.505,11.011,27.758,16.517c0.014,0.008,1.091-7.751,1.087-8.545C218.4,166.12,217.095,160.864,214.667,156.24z
							"/>
						<path style="fill:none;stroke:#404363;stroke-width:0.75;stroke-linecap:round;stroke-miterlimit:10;" d="M186.367,141.793
							c-3.622,1.541-6.246,5.202-6.541,9.128"/>
						<path style="fill:none;stroke:#404363;stroke-width:0.75;stroke-linecap:round;stroke-miterlimit:10;" d="M174.086,150.098
							c2.319-1.201,5.385-0.744,7.253,1.081"/>
					</g>
				</g>
				<g>
					<g>
						<g>
							<path style="fill:#404363;" d="M204.184,185.529c0.336-0.967,0.671-1.935,1.007-2.902c0.23-0.663-0.262-1.422-0.908-1.599
								c-0.715-0.196-1.368,0.242-1.599,0.908c-0.336,0.967-0.671,1.935-1.007,2.902c-0.23,0.663,0.262,1.422,0.908,1.599
								C203.3,186.634,203.953,186.195,204.184,185.529L204.184,185.529z"/>
						</g>
					</g>
					<path style="fill:none;stroke:#404363;stroke-width:0.75;stroke-linecap:round;stroke-miterlimit:10;" d="M193.158,190.96
						c0.916,0.543,1.955,0.876,3.016,0.968c0.297,0.025,0.638,0.015,0.833-0.21c0.275-0.318,0.073-0.8-0.098-1.184
						c-0.716-1.604-0.66-3.532,0.147-5.091"/>
					<g>
						<g>
							<path style="fill:#404363;" d="M191.012,180.96c0.335-0.967,0.671-1.935,1.007-2.902c0.23-0.663-0.263-1.422-0.908-1.599
								c-0.715-0.197-1.368,0.242-1.599,0.908c-0.336,0.967-0.671,1.935-1.007,2.902c-0.23,0.663,0.263,1.422,0.908,1.599
								C190.128,182.064,190.781,181.626,191.012,180.96L191.012,180.96z"/>
						</g>
					</g>
					<path style="fill:none;stroke:#404363;stroke-width:0.75;stroke-linecap:round;stroke-miterlimit:10;" d="M207.552,178.315
						c-0.67-1.062-1.922-1.729-3.177-1.694"/>
					<path style="fill:none;stroke:#404363;stroke-width:0.75;stroke-linecap:round;stroke-miterlimit:10;" d="M192.375,172.094
						c-1.04-0.892-2.472-1.308-3.828-1.111"/>
				</g>
				<g>
					<g>
						<path style="fill:#FFB49B;" d="M168.958,173.238c-0.905,2.608,0.346,5.498,2.853,7.07c0.764,0.479,1.784,0.075,2.099-0.769
							l3.021-8.085c0.267-0.716-0.063-1.532-0.754-1.858C172.433,167.828,169.932,170.429,168.958,173.238z"/>
					</g>
					<path style="fill:none;stroke:#404363;stroke-width:0.75;stroke-linecap:round;stroke-miterlimit:10;" d="M171.863,171.61
						c0.429-0.43,1.16-0.519,1.679-0.203c0.664,0.404,0.864,1.317,0.669,2.069c-0.195,0.752-0.697,1.382-1.185,1.986
						c-0.393-0.433-1.198-0.365-1.512,0.129c-0.314,0.493-0.035,1.252,0.523,1.425"/>
				</g>
				<g>
					<path style="fill:#FFFFFF;" d="M175.889,190.586c-0.612,2.233-0.99,4.493-0.842,6.667c0.131,1.916,1.263,3.653,2.705,4.921
						c6.112,5.376,13.727,5.595,19.949-0.025c3.475-3.139,5.708-7.462,7.041-11.951c0.285-1.14-8.448-3.554-9.411-3.761
						c-4.425-0.948-8.496-3.689-12.517-5.766c-0.692-0.358-1.465-0.726-2.22-0.532c-0.999,0.257-1.493,1.353-1.851,2.32
						C177.814,184.972,176.664,187.758,175.889,190.586z"/>
					<path style="fill:none;stroke:#FFFFFF;stroke-width:2.2613;stroke-linecap:round;stroke-miterlimit:10;" d="M176.198,168.75
						c1.863,5.046,3.725,10.091,5.588,15.137"/>
					<path style="fill:none;stroke:#FFFFFF;stroke-width:2.2613;stroke-linecap:round;stroke-miterlimit:10;" d="M171.654,179.956
						c0.643,5.849,2.033,10.295,4.329,15.712"/>
					<path style="fill:none;stroke:#404363;stroke-width:0.75;stroke-linecap:round;stroke-miterlimit:10;" d="M192.036,186.009
						c2.676,0.34,5.278,1.246,7.586,2.641"/>
				</g>
				<g>
					
						<circle style="fill:none;stroke:#404363;stroke-width:0.75;stroke-linecap:round;stroke-miterlimit:10;" cx="187.844" cy="181.949" r="7.514"/>
					<path style="fill:none;stroke:#404363;stroke-width:0.75;stroke-linecap:round;stroke-miterlimit:10;" d="M210.379,188.859
						c-1.282,3.947-5.01,6.273-8.325,5.196c-3.315-1.077-4.964-5.15-3.681-9.097c1.282-3.947,5.01-6.273,8.325-5.196
						C210.013,180.839,211.661,184.911,210.379,188.859z"/>
					<path style="fill:none;stroke:#404363;stroke-width:0.75;stroke-linecap:round;stroke-miterlimit:10;" d="M195.562,183.257
						c1.052-0.004,2.102,0.351,2.936,0.992"/>
					<path style="fill:none;stroke:#404363;stroke-width:0.75;stroke-linecap:round;stroke-miterlimit:10;" d="M181.986,176.966
						c-2.029-2.287-5.406-5.929-7.435-8.216"/>
				</g>
			</g>
			<g>
				<path style="fill:none;stroke:#404363;stroke-width:0.75;stroke-linecap:round;stroke-miterlimit:10;" d="M172.09,175.788
					c-3.293,10.673-3.677,20.85-0.816,31.648c1.202,4.537,3.323,9.357,7.604,11.282c4.769,2.144,10.596-0.279,13.977-4.267
					c3.381-3.989,3.656-10.842,3.656-10.842"/>
				<g>
					<path style="fill:#4D4D4D;" d="M294.499,248.066c0,1.278-2.327,2.314-5.197,2.314c-2.87,0-5.197-1.036-5.197-2.314
						c0-1.278,2.327-2.314,5.197-2.314C292.172,245.753,294.499,246.789,294.499,248.066z"/>
				</g>
				<path style="fill:#FFB49B;" d="M284.603,246.993l4.873,0.654l1.439,2.228l-1.625,1.393l-4.523,0.824
					c0,0-4.435,4.282-8.072,3.382c-5.059-1.252-1.879-5.014-0.695-6.239c0.241-0.25,0.553-0.417,0.891-0.494L284.603,246.993z"/>
				<g>
					<path style="fill:none;stroke:#404363;stroke-width:0.75;stroke-linecap:round;stroke-miterlimit:10;" d="M286.588,245.101
						c-17.476-3.186-37.429-2.308-54.244,3.422c-5.858,1.996-11.549,4.514-17.545,6.044c-5.996,1.53-12.461,2.022-18.294-0.045
						c-6.31-2.236-11.367-7.363-14.285-13.388c-2.918-6.025-4.012-15.547-3.637-22.231"/>
					<path style="fill:#666666;" d="M293.861,245.346c0,1.121-2.041,2.03-4.559,2.03c-2.518,0-4.559-0.909-4.559-2.03
						c0-1.121,2.041-2.03,4.559-2.03C291.82,243.316,293.861,244.225,293.861,245.346z"/>
					<path style="fill:#B3B3B3;" d="M292.685,245.193c0,0.767-1.514,1.389-3.383,1.389c-1.868,0-3.383-0.622-3.383-1.389
						c0-0.767,1.514-1.389,3.383-1.389C291.17,243.804,292.685,244.426,292.685,245.193z"/>
				</g>
			</g>
		</g>
		<g>
			
				<polyline style="fill:none;stroke:#404363;stroke-width:3;stroke-linecap:round;stroke-linejoin:round;stroke-miterlimit:10;" points="
				189.767,464.611 189.767,295.541 299.138,295.541 299.138,464.611 			"/>
			<rect x="172.135" y="284.541" style="fill:#6977E0;" width="144.635" height="8.945"/>
		</g>
	</g>
</g>
</svg>
